<?xml version="1.0" standalone="no"?>
<!DOCTYPE svg PUBLIC "-//W3C//DTD SVG 20010904//EN"
 "http://www.w3.org/TR/2001/REC-SVG-20010904/DTD/svg10.dtd">
<svg version="1.0" xmlns="http://www.w3.org/2000/svg"
 width="918.000000pt" height="918.000000pt" viewBox="0 0 918.000000 918.000000"
 preserveAspectRatio="xMidYMid meet">
<metadata>
Created by potrace 1.11, written by Peter Selinger 2001-2013
</metadata>
<g transform="translate(0.000000,918.000000) scale(0.100000,-0.100000)"
fill="#000000" stroke="none">
<path d="M1115 7949 c-410 -59 -771 -313 -968 -681 -20 -38 -35 -68 -32 -68 3
0 -4 -15 -14 -32 -16 -30 -57 -153 -67 -203 -11 -52 -16 -84 -24 -135 -11 -68
-7 -4482 4 -4530 4 -19 9 -44 11 -55 25 -144 110 -342 206 -480 47 -68 175
-207 244 -265 137 -116 361 -224 535 -259 30 -6 69 -14 85 -18 46 -12 6899
-14 6965 -2 30 5 69 12 87 14 64 9 230 68 318 112 126 63 236 143 336 243 167
168 260 329 338 585 36 116 36 106 36 2410 0 2156 -1 2254 -19 2335 -41 188
-104 335 -210 489 -66 96 -221 252 -318 318 -144 100 -333 181 -483 207 -16 3
-41 9 -55 13 -35 11 -6902 12 -6975 2z"/>
</g>
</svg>
